<svg width="491" height="315" viewBox="0 0 491 315" fill="none" xmlns="http://www.w3.org/2000/svg">
<g filter="url(#filter0_d_2707_48266)">
<rect x="251" y="97" width="232" height="210" rx="12" fill="#FCFCFC"/>
<rect x="251.5" y="97.5" width="231" height="209" rx="11.5" stroke="#E8E8E8"/>
</g>
<g filter="url(#filter1_d_2707_48266)">
<rect y="97" width="232" height="210" rx="12" fill="#E8E8E8"/>
<rect x="0.5" y="97.5" width="231" height="209" rx="11.5" stroke="#E8E8E8"/>
</g>
<path d="M122.266 166.707C121.215 166.707 120.363 167.559 120.363 168.61C120.363 169.662 121.215 170.514 122.266 170.514C123.318 170.514 124.17 169.662 124.17 168.61C124.17 167.559 123.318 166.707 122.266 166.707Z" fill="var(--harmony-brand, #6FC0C6)"/>
<path d="M120.724 178.009C119.962 177.571 118.989 177.833 118.551 178.595C118.318 179 117.879 179.254 117.409 179.256C117.407 179.256 117.407 179.256 117.405 179.256H117.398C116.929 179.254 116.493 179 116.258 178.595C116.121 178.36 115.927 178.154 115.674 178.009C114.912 177.571 113.94 177.833 113.501 178.595C113.266 179.001 112.826 179.256 112.354 179.256C111.881 179.256 111.443 179.001 111.208 178.595C110.769 177.833 109.797 177.571 109.035 178.009C108.273 178.448 108.013 179.422 108.451 180.182C108.976 181.096 109.804 181.779 110.762 182.143V186.049C110.762 188.319 112.608 190.165 114.878 190.165C117.149 190.165 118.996 188.319 118.996 186.049V182.143C119.957 181.781 120.782 181.096 121.309 180.182C121.748 179.422 121.486 178.448 120.724 178.009ZM115.814 186.049C115.814 186.564 115.395 186.983 114.878 186.983C114.364 186.983 113.945 186.564 113.945 186.049V182.143C114.274 182.019 114.589 181.859 114.88 181.661C115.17 181.859 115.485 182.019 115.814 182.145V186.049Z" fill="var(--harmony-brand, #6FC0C6)"/>
<path d="M139.648 215.731H139.507C139.737 214.824 139.855 213.887 139.855 212.945C139.855 210.363 138.96 207.838 137.339 205.835C136.043 204.238 134.331 203.024 132.418 202.325V193.663C132.418 191.45 132.015 189.305 131.22 187.273C131.22 187.271 131.22 187.271 131.22 187.271C132.864 184.423 133.732 181.18 133.72 177.81L133.718 173.881V173.828L133.72 173.791V173.784L133.642 154.764C133.635 153.217 133.025 151.767 131.929 150.68C130.837 149.596 129.389 149 127.853 149H127.828C126.281 149.007 124.829 149.615 123.74 150.713L119.017 155.475C117.675 155.174 116.291 155.02 114.882 155.02H114.802C113.358 155.026 111.95 155.197 110.598 155.514L105.829 150.786C104.738 149.702 103.29 149.106 101.753 149.106H101.729C100.181 149.113 98.7298 149.721 97.6424 150.818C96.5531 151.916 95.9573 153.371 95.9627 154.92L96.0404 173.832V177.957C96.0528 181.27 96.9174 184.451 98.5247 187.248C98.2719 187.89 98.0578 188.544 97.8846 189.207C97.7114 189.87 97.5769 190.544 97.4815 191.227L91.1462 184.89C90.8138 184.557 90.3646 184.372 89.8944 184.372C89.4258 184.372 88.9767 184.557 88.6442 184.89C82.5795 190.956 82.5795 200.826 88.6442 206.891L90.6581 208.906C90.1666 210.188 89.9083 211.559 89.9083 212.945C89.9083 213.887 90.0268 214.824 90.2567 215.731H90.1153C87.7689 215.731 85.8594 217.641 85.8594 219.987V222.109C85.8594 223.704 87.1554 225 88.7504 225H141.013C142.608 225 143.904 223.704 143.904 222.109V219.987C143.904 217.641 141.994 215.731 139.648 215.731ZM89.9863 188.732L97.3152 196.061V202.338C95.4516 203.024 93.779 204.201 92.5005 205.745L91.1462 204.391C86.8832 200.128 86.496 193.435 89.9863 188.732ZM89.3958 221.464V219.987C89.3958 219.591 89.7194 219.268 90.1154 219.268H92.8348C93.459 219.268 94.0371 218.939 94.3554 218.401C94.6736 217.866 94.6859 217.199 94.3871 216.653C93.7701 215.524 93.4447 214.243 93.4447 212.945C93.4447 211.75 93.7258 210.598 94.2298 209.566C94.3004 209.423 94.3748 209.281 94.4526 209.143V209.142C95.1315 207.945 96.1182 206.933 97.3152 206.233C97.3152 206.233 97.3152 219.365 97.3188 221.464H89.3958V221.464ZM126.251 153.203C127.126 152.321 128.557 152.315 129.439 153.191C129.865 153.613 130.102 154.179 130.106 154.78L130.139 162.802C129.543 161.985 128.878 161.211 128.146 160.484C126.553 158.903 124.73 157.643 122.75 156.732L126.251 153.203ZM114.885 158.55H114.887C116.811 158.559 118.655 158.907 120.356 159.563C118.321 159.97 116.425 160.908 114.862 162.295C113.31 160.919 111.432 159.984 109.411 159.572C111.114 158.916 112.962 158.559 114.885 158.55ZM99.4989 154.906C99.4971 154.303 99.7288 153.737 100.153 153.309C100.577 152.881 101.141 152.646 101.743 152.642H101.752C102.351 152.642 102.913 152.874 103.339 153.297L106.883 156.812C103.937 158.2 101.407 160.33 99.5326 162.958L99.4989 154.906ZM128.882 221.464H124.081V204.725C124.081 203.749 123.289 202.957 122.313 202.957C121.337 202.957 120.545 203.749 120.545 204.725V221.464H109.197V204.725C109.197 203.749 108.405 202.957 107.429 202.957C106.453 202.957 105.661 203.749 105.661 204.725V221.464H100.857C100.853 219.446 100.851 193.663 100.851 193.663C100.851 192.682 100.954 191.718 101.15 190.78C101.299 190.942 101.453 191.1 101.612 191.257C105.166 194.783 109.874 196.72 114.876 196.72H114.956C119.988 196.699 124.711 194.721 128.254 191.147C128.369 191.032 128.479 190.917 128.588 190.801C128.781 191.734 128.882 192.691 128.882 193.663V221.464H128.882ZM130.183 177.943H130.182C130.148 186.338 123.323 193.15 114.942 193.184H114.878C106.469 193.184 99.6105 186.359 99.5768 177.943V173.835C99.5839 169.358 101.532 165.32 104.625 162.521L107.028 162.514H107.058C109.6 162.514 112.003 163.635 113.648 165.588C113.962 165.963 114.412 166.156 114.866 166.156C115.227 166.156 115.591 166.034 115.89 165.783C115.96 165.723 116.024 165.658 116.082 165.589C116.905 164.611 117.916 163.843 119.039 163.318C120.163 162.793 121.399 162.514 122.671 162.514L125.157 162.521C125.326 162.675 125.493 162.832 125.657 162.995C128.557 165.871 130.164 169.703 130.183 173.789V177.943ZM140.368 221.464H132.418V206.215C134.768 207.578 136.319 210.133 136.319 212.945C136.319 214.243 135.993 215.524 135.376 216.653C135.077 217.199 135.09 217.864 135.408 218.401C135.726 218.939 136.304 219.268 136.929 219.268H139.648C140.044 219.268 140.368 219.591 140.368 219.987V221.464H140.368Z" fill="var(--harmony-brand, #6FC0C6)"/>
<path d="M108.684 170.146C108.919 169.952 109.107 169.703 109.228 169.418C109.256 169.35 109.28 169.278 109.301 169.206C109.35 169.038 109.377 168.861 109.377 168.678C109.377 168.415 109.324 168.164 109.228 167.936C109.179 167.822 109.12 167.714 109.052 167.613C108.949 167.461 108.825 167.325 108.684 167.208C108.59 167.131 108.489 167.062 108.381 167.003C108.273 166.945 108.158 166.896 108.039 166.859C107.86 166.803 107.67 166.773 107.473 166.773C107.276 166.773 107.086 166.803 106.907 166.859C106.788 166.896 106.674 166.945 106.566 167.003C106.189 167.208 105.888 167.538 105.72 167.936C105.624 168.164 105.57 168.415 105.57 168.678C105.57 169.269 105.84 169.797 106.263 170.146C106.357 170.223 106.458 170.292 106.566 170.35C106.782 170.468 107.023 170.544 107.278 170.57C107.342 170.577 107.407 170.58 107.473 170.58C107.67 170.58 107.86 170.55 108.039 170.495C108.159 170.458 108.273 170.409 108.381 170.35C108.489 170.292 108.59 170.223 108.684 170.146Z" fill="var(--harmony-brand, #6FC0C6)"/>
<path d="M114.077 175.062H115.657C116.635 175.062 117.426 174.271 117.426 173.294C117.426 172.318 116.635 171.525 115.657 171.525H114.077C113.099 171.525 112.309 172.317 112.309 173.294C112.309 174.271 113.099 175.062 114.077 175.062Z" fill="var(--harmony-brand, #6FC0C6)"/>
<path d="M107.473 166.773C106.422 166.773 105.57 167.626 105.57 168.678C105.57 169.728 106.422 170.58 107.473 170.58C108.525 170.58 109.377 169.728 109.377 168.678C109.377 167.626 108.525 166.773 107.473 166.773Z" fill="var(--harmony-brand, #6FC0C6)"/>
<path d="M122.266 166.707C121.215 166.707 120.363 167.559 120.363 168.61C120.363 169.662 121.215 170.514 122.266 170.514C123.318 170.514 124.17 169.662 124.17 168.61C124.17 167.559 123.318 166.707 122.266 166.707Z" fill="var(--harmony-brand, #6FC0C6)"/>
<path d="M115.657 171.525H114.077C113.099 171.525 112.309 172.317 112.309 173.294C112.309 174.271 113.099 175.062 114.077 175.062H115.657C116.635 175.062 117.426 174.271 117.426 173.294C117.426 172.317 116.635 171.525 115.657 171.525Z" fill="var(--harmony-brand, #6FC0C6)"/>
<path d="M120.724 178.009C119.962 177.571 118.989 177.833 118.551 178.595C118.318 179 117.879 179.254 117.409 179.256C117.407 179.256 117.407 179.256 117.405 179.256H117.398C116.929 179.254 116.493 179 116.258 178.595C116.121 178.36 115.927 178.154 115.674 178.009C114.912 177.571 113.94 177.833 113.501 178.595C113.266 179.001 112.826 179.256 112.354 179.256C111.881 179.256 111.443 179.001 111.208 178.595C110.769 177.833 109.797 177.571 109.035 178.009C108.273 178.448 108.013 179.422 108.451 180.182C108.976 181.096 109.804 181.779 110.762 182.143V186.049C110.762 188.319 112.608 190.165 114.878 190.165C117.149 190.165 118.996 188.319 118.996 186.049V182.143C119.957 181.781 120.782 181.096 121.309 180.182C121.748 179.422 121.486 178.448 120.724 178.009ZM115.814 186.049C115.814 186.564 115.395 186.983 114.878 186.983C114.364 186.983 113.945 186.564 113.945 186.049V182.143C114.274 182.019 114.589 181.859 114.88 181.661C115.17 181.859 115.485 182.019 115.814 182.145V186.049Z" fill="var(--harmony-brand, #6FC0C6)"/>
<path d="M84.3584 263H80.5644V254.152H71.0724V263H67.2784V242.756H71.0724V251.464H80.5644V242.756H84.3584V263ZM91.4104 248.636V257.764C91.4104 258.641 91.6111 259.323 92.0124 259.808C92.4231 260.284 93.0344 260.522 93.8464 260.522C94.4438 260.522 95.0038 260.391 95.5264 260.13C96.0491 259.859 96.5438 259.491 97.0104 259.024V248.636H100.468V263H98.3544C97.9064 263 97.6124 262.79 97.4724 262.37L97.2344 261.222C96.9358 261.521 96.6278 261.796 96.3104 262.048C95.9931 262.291 95.6524 262.501 95.2884 262.678C94.9338 262.846 94.5464 262.977 94.1264 263.07C93.7158 263.173 93.2724 263.224 92.7964 263.224C92.0124 263.224 91.3171 263.093 90.7104 262.832C90.1131 262.561 89.6091 262.183 89.1984 261.698C88.7878 261.213 88.4751 260.639 88.2604 259.976C88.0551 259.304 87.9524 258.567 87.9524 257.764V248.636H91.4104ZM112.687 251.436C112.593 251.585 112.495 251.693 112.393 251.758C112.29 251.814 112.159 251.842 112.001 251.842C111.833 251.842 111.651 251.795 111.455 251.702C111.268 251.609 111.049 251.506 110.797 251.394C110.545 251.273 110.255 251.165 109.929 251.072C109.611 250.979 109.233 250.932 108.795 250.932C108.113 250.932 107.577 251.077 107.185 251.366C106.793 251.655 106.597 252.033 106.597 252.5C106.597 252.808 106.695 253.069 106.891 253.284C107.096 253.489 107.362 253.671 107.689 253.83C108.025 253.989 108.403 254.133 108.823 254.264C109.243 254.385 109.672 254.521 110.111 254.67C110.549 254.819 110.979 254.992 111.399 255.188C111.819 255.375 112.192 255.617 112.519 255.916C112.855 256.205 113.121 256.555 113.317 256.966C113.522 257.377 113.625 257.871 113.625 258.45C113.625 259.141 113.499 259.78 113.247 260.368C112.995 260.947 112.626 261.451 112.141 261.88C111.655 262.3 111.053 262.631 110.335 262.874C109.625 263.107 108.809 263.224 107.885 263.224C107.39 263.224 106.905 263.177 106.428 263.084C105.962 263 105.509 262.879 105.071 262.72C104.641 262.561 104.24 262.375 103.867 262.16C103.503 261.945 103.181 261.712 102.901 261.46L103.699 260.144C103.801 259.985 103.923 259.864 104.062 259.78C104.203 259.696 104.38 259.654 104.595 259.654C104.809 259.654 105.01 259.715 105.197 259.836C105.393 259.957 105.617 260.088 105.869 260.228C106.121 260.368 106.415 260.499 106.751 260.62C107.096 260.741 107.53 260.802 108.053 260.802C108.463 260.802 108.813 260.755 109.103 260.662C109.401 260.559 109.644 260.429 109.831 260.27C110.027 260.111 110.167 259.929 110.251 259.724C110.344 259.509 110.391 259.29 110.391 259.066C110.391 258.73 110.288 258.455 110.083 258.24C109.887 258.025 109.621 257.839 109.285 257.68C108.958 257.521 108.58 257.381 108.151 257.26C107.731 257.129 107.297 256.989 106.849 256.84C106.41 256.691 105.976 256.518 105.547 256.322C105.127 256.117 104.749 255.86 104.413 255.552C104.086 255.244 103.82 254.866 103.615 254.418C103.419 253.97 103.321 253.429 103.321 252.794C103.321 252.206 103.437 251.646 103.671 251.114C103.904 250.582 104.245 250.12 104.693 249.728C105.15 249.327 105.715 249.009 106.387 248.776C107.068 248.533 107.852 248.412 108.739 248.412C109.728 248.412 110.629 248.575 111.441 248.902C112.253 249.229 112.929 249.658 113.471 250.19L112.687 251.436ZM119.883 242.196V254.11H120.527C120.76 254.11 120.942 254.077 121.073 254.012C121.204 253.947 121.344 253.825 121.493 253.648L125.063 249.238C125.222 249.051 125.39 248.907 125.567 248.804C125.744 248.692 125.978 248.636 126.267 248.636H129.431L124.965 253.97C124.806 254.166 124.643 254.348 124.475 254.516C124.307 254.675 124.125 254.815 123.929 254.936C124.125 255.076 124.298 255.239 124.447 255.426C124.596 255.613 124.746 255.813 124.895 256.028L129.683 263H126.561C126.29 263 126.062 262.953 125.875 262.86C125.688 262.767 125.52 262.608 125.371 262.384L121.717 256.938C121.577 256.723 121.437 256.583 121.297 256.518C121.157 256.453 120.947 256.42 120.667 256.42H119.883V263H116.425V242.196H119.883ZM135.514 248.636V263H132.056V248.636H135.514ZM136.032 244.45C136.032 244.749 135.972 245.029 135.85 245.29C135.729 245.551 135.566 245.78 135.36 245.976C135.164 246.172 134.931 246.331 134.66 246.452C134.39 246.564 134.1 246.62 133.792 246.62C133.494 246.62 133.209 246.564 132.938 246.452C132.677 246.331 132.448 246.172 132.252 245.976C132.056 245.78 131.898 245.551 131.776 245.29C131.664 245.029 131.608 244.749 131.608 244.45C131.608 244.142 131.664 243.853 131.776 243.582C131.898 243.311 132.056 243.078 132.252 242.882C132.448 242.686 132.677 242.532 132.938 242.42C133.209 242.299 133.494 242.238 133.792 242.238C134.1 242.238 134.39 242.299 134.66 242.42C134.931 242.532 135.164 242.686 135.36 242.882C135.566 243.078 135.729 243.311 135.85 243.582C135.972 243.853 136.032 244.142 136.032 244.45ZM145.37 248.412C146.275 248.412 147.106 248.557 147.862 248.846C148.627 249.135 149.285 249.56 149.836 250.12C150.387 250.671 150.816 251.352 151.124 252.164C151.432 252.967 151.586 253.886 151.586 254.922C151.586 255.183 151.572 255.403 151.544 255.58C151.525 255.748 151.483 255.883 151.418 255.986C151.362 256.079 151.283 256.149 151.18 256.196C151.077 256.233 150.947 256.252 150.788 256.252H141.912C142.015 257.727 142.411 258.809 143.102 259.5C143.793 260.191 144.707 260.536 145.846 260.536C146.406 260.536 146.887 260.471 147.288 260.34C147.699 260.209 148.053 260.065 148.352 259.906C148.66 259.747 148.926 259.603 149.15 259.472C149.383 259.341 149.607 259.276 149.822 259.276C149.962 259.276 150.083 259.304 150.186 259.36C150.289 259.416 150.377 259.495 150.452 259.598L151.46 260.858C151.077 261.306 150.648 261.684 150.172 261.992C149.696 262.291 149.197 262.533 148.674 262.72C148.161 262.897 147.633 263.023 147.092 263.098C146.56 263.173 146.042 263.21 145.538 263.21C144.539 263.21 143.611 263.047 142.752 262.72C141.893 262.384 141.147 261.894 140.512 261.25C139.877 260.597 139.378 259.794 139.014 258.842C138.65 257.881 138.468 256.77 138.468 255.51C138.468 254.53 138.627 253.611 138.944 252.752C139.261 251.884 139.714 251.133 140.302 250.498C140.899 249.854 141.623 249.345 142.472 248.972C143.331 248.599 144.297 248.412 145.37 248.412ZM145.44 250.89C144.432 250.89 143.643 251.175 143.074 251.744C142.505 252.313 142.141 253.121 141.982 254.166H148.478C148.478 253.718 148.417 253.298 148.296 252.906C148.175 252.505 147.988 252.155 147.736 251.856C147.484 251.557 147.167 251.324 146.784 251.156C146.401 250.979 145.953 250.89 145.44 250.89ZM162.917 251.436C162.824 251.585 162.726 251.693 162.623 251.758C162.52 251.814 162.39 251.842 162.231 251.842C162.063 251.842 161.881 251.795 161.685 251.702C161.498 251.609 161.279 251.506 161.027 251.394C160.775 251.273 160.486 251.165 160.159 251.072C159.842 250.979 159.464 250.932 159.025 250.932C158.344 250.932 157.807 251.077 157.415 251.366C157.023 251.655 156.827 252.033 156.827 252.5C156.827 252.808 156.925 253.069 157.121 253.284C157.326 253.489 157.592 253.671 157.919 253.83C158.255 253.989 158.633 254.133 159.053 254.264C159.473 254.385 159.902 254.521 160.341 254.67C160.78 254.819 161.209 254.992 161.629 255.188C162.049 255.375 162.422 255.617 162.749 255.916C163.085 256.205 163.351 256.555 163.547 256.966C163.752 257.377 163.855 257.871 163.855 258.45C163.855 259.141 163.729 259.78 163.477 260.368C163.225 260.947 162.856 261.451 162.371 261.88C161.886 262.3 161.284 262.631 160.565 262.874C159.856 263.107 159.039 263.224 158.115 263.224C157.62 263.224 157.135 263.177 156.659 263.084C156.192 263 155.74 262.879 155.301 262.72C154.872 262.561 154.47 262.375 154.097 262.16C153.733 261.945 153.411 261.712 153.131 261.46L153.929 260.144C154.032 259.985 154.153 259.864 154.293 259.78C154.433 259.696 154.61 259.654 154.825 259.654C155.04 259.654 155.24 259.715 155.427 259.836C155.623 259.957 155.847 260.088 156.099 260.228C156.351 260.368 156.645 260.499 156.981 260.62C157.326 260.741 157.76 260.802 158.283 260.802C158.694 260.802 159.044 260.755 159.333 260.662C159.632 260.559 159.874 260.429 160.061 260.27C160.257 260.111 160.397 259.929 160.481 259.724C160.574 259.509 160.621 259.29 160.621 259.066C160.621 258.73 160.518 258.455 160.313 258.24C160.117 258.025 159.851 257.839 159.515 257.68C159.188 257.521 158.81 257.381 158.381 257.26C157.961 257.129 157.527 256.989 157.079 256.84C156.64 256.691 156.206 256.518 155.777 256.322C155.357 256.117 154.979 255.86 154.643 255.552C154.316 255.244 154.05 254.866 153.845 254.418C153.649 253.97 153.551 253.429 153.551 252.794C153.551 252.206 153.668 251.646 153.901 251.114C154.134 250.582 154.475 250.12 154.923 249.728C155.38 249.327 155.945 249.009 156.617 248.776C157.298 248.533 158.082 248.412 158.969 248.412C159.958 248.412 160.859 248.575 161.671 248.902C162.483 249.229 163.16 249.658 163.701 250.19L162.917 251.436Z" fill="var(--harmony-brand, #6FC0C6)"/>
<path d="M312.758 255.09V263H308.992V242.756H315.166C316.548 242.756 317.728 242.901 318.708 243.19C319.698 243.47 320.505 243.867 321.13 244.38C321.765 244.893 322.227 245.509 322.516 246.228C322.815 246.937 322.964 247.721 322.964 248.58C322.964 249.261 322.862 249.905 322.656 250.512C322.46 251.119 322.171 251.669 321.788 252.164C321.415 252.659 320.948 253.093 320.388 253.466C319.838 253.839 319.208 254.138 318.498 254.362C318.974 254.633 319.385 255.02 319.73 255.524L324.798 263H321.41C321.084 263 320.804 262.935 320.57 262.804C320.346 262.673 320.155 262.487 319.996 262.244L315.74 255.762C315.582 255.519 315.404 255.347 315.208 255.244C315.022 255.141 314.742 255.09 314.368 255.09H312.758ZM312.758 252.388H315.11C315.82 252.388 316.436 252.299 316.958 252.122C317.49 251.945 317.924 251.702 318.26 251.394C318.606 251.077 318.862 250.703 319.03 250.274C319.198 249.845 319.282 249.373 319.282 248.86C319.282 247.833 318.942 247.045 318.26 246.494C317.588 245.943 316.557 245.668 315.166 245.668H312.758V252.388ZM332.954 248.412C333.859 248.412 334.69 248.557 335.446 248.846C336.211 249.135 336.869 249.56 337.42 250.12C337.971 250.671 338.4 251.352 338.708 252.164C339.016 252.967 339.17 253.886 339.17 254.922C339.17 255.183 339.156 255.403 339.128 255.58C339.109 255.748 339.067 255.883 339.002 255.986C338.946 256.079 338.867 256.149 338.764 256.196C338.661 256.233 338.531 256.252 338.372 256.252H329.496C329.599 257.727 329.995 258.809 330.686 259.5C331.377 260.191 332.291 260.536 333.43 260.536C333.99 260.536 334.471 260.471 334.872 260.34C335.283 260.209 335.637 260.065 335.936 259.906C336.244 259.747 336.51 259.603 336.734 259.472C336.967 259.341 337.191 259.276 337.406 259.276C337.546 259.276 337.667 259.304 337.77 259.36C337.873 259.416 337.961 259.495 338.036 259.598L339.044 260.858C338.661 261.306 338.232 261.684 337.756 261.992C337.28 262.291 336.781 262.533 336.258 262.72C335.745 262.897 335.217 263.023 334.676 263.098C334.144 263.173 333.626 263.21 333.122 263.21C332.123 263.21 331.195 263.047 330.336 262.72C329.477 262.384 328.731 261.894 328.096 261.25C327.461 260.597 326.962 259.794 326.598 258.842C326.234 257.881 326.052 256.77 326.052 255.51C326.052 254.53 326.211 253.611 326.528 252.752C326.845 251.884 327.298 251.133 327.886 250.498C328.483 249.854 329.207 249.345 330.056 248.972C330.915 248.599 331.881 248.412 332.954 248.412ZM333.024 250.89C332.016 250.89 331.227 251.175 330.658 251.744C330.089 252.313 329.725 253.121 329.566 254.166H336.062C336.062 253.718 336.001 253.298 335.88 252.906C335.759 252.505 335.572 252.155 335.32 251.856C335.068 251.557 334.751 251.324 334.368 251.156C333.985 250.979 333.537 250.89 333.024 250.89ZM345.657 248.636V263H342.199V248.636H345.657ZM346.175 244.45C346.175 244.749 346.114 245.029 345.993 245.29C345.872 245.551 345.708 245.78 345.503 245.976C345.307 246.172 345.074 246.331 344.803 246.452C344.532 246.564 344.243 246.62 343.935 246.62C343.636 246.62 343.352 246.564 343.081 246.452C342.82 246.331 342.591 246.172 342.395 245.976C342.199 245.78 342.04 245.551 341.919 245.29C341.807 245.029 341.751 244.749 341.751 244.45C341.751 244.142 341.807 243.853 341.919 243.582C342.04 243.311 342.199 243.078 342.395 242.882C342.591 242.686 342.82 242.532 343.081 242.42C343.352 242.299 343.636 242.238 343.935 242.238C344.243 242.238 344.532 242.299 344.803 242.42C345.074 242.532 345.307 242.686 345.503 242.882C345.708 243.078 345.872 243.311 345.993 243.582C346.114 243.853 346.175 244.142 346.175 244.45ZM349.577 263V248.636H351.691C352.139 248.636 352.433 248.846 352.573 249.266L352.811 250.4C353.1 250.101 353.403 249.831 353.721 249.588C354.047 249.345 354.388 249.135 354.743 248.958C355.107 248.781 355.494 248.645 355.905 248.552C356.315 248.459 356.763 248.412 357.249 248.412C358.033 248.412 358.728 248.547 359.335 248.818C359.941 249.079 360.445 249.453 360.847 249.938C361.257 250.414 361.565 250.988 361.771 251.66C361.985 252.323 362.093 253.055 362.093 253.858V263H358.635V253.858C358.635 252.981 358.429 252.304 358.019 251.828C357.617 251.343 357.011 251.1 356.199 251.1C355.601 251.1 355.041 251.235 354.519 251.506C353.996 251.777 353.501 252.145 353.035 252.612V263H349.577ZM375.599 263C375.151 263 374.857 262.79 374.717 262.37L374.437 260.984C374.138 261.32 373.825 261.623 373.499 261.894C373.172 262.165 372.817 262.398 372.435 262.594C372.061 262.79 371.655 262.939 371.217 263.042C370.787 263.154 370.321 263.21 369.817 263.21C369.033 263.21 368.314 263.047 367.661 262.72C367.007 262.393 366.443 261.922 365.967 261.306C365.5 260.681 365.136 259.911 364.875 258.996C364.623 258.081 364.497 257.036 364.497 255.86C364.497 254.796 364.641 253.807 364.931 252.892C365.22 251.977 365.635 251.184 366.177 250.512C366.718 249.84 367.367 249.317 368.123 248.944C368.879 248.561 369.728 248.37 370.671 248.37C371.473 248.37 372.159 248.501 372.729 248.762C373.298 249.014 373.807 249.355 374.255 249.784V242.196H377.713V263H375.599ZM370.993 260.466C371.711 260.466 372.323 260.317 372.827 260.018C373.331 259.719 373.807 259.295 374.255 258.744V252.304C373.863 251.828 373.433 251.492 372.967 251.296C372.509 251.1 372.015 251.002 371.483 251.002C370.96 251.002 370.484 251.1 370.055 251.296C369.635 251.492 369.275 251.791 368.977 252.192C368.687 252.584 368.463 253.088 368.305 253.704C368.146 254.311 368.067 255.029 368.067 255.86C368.067 256.7 368.132 257.414 368.263 258.002C368.403 258.581 368.599 259.057 368.851 259.43C369.103 259.794 369.411 260.06 369.775 260.228C370.139 260.387 370.545 260.466 370.993 260.466ZM387.395 248.412C388.301 248.412 389.131 248.557 389.887 248.846C390.653 249.135 391.311 249.56 391.861 250.12C392.412 250.671 392.841 251.352 393.149 252.164C393.457 252.967 393.611 253.886 393.611 254.922C393.611 255.183 393.597 255.403 393.569 255.58C393.551 255.748 393.509 255.883 393.443 255.986C393.387 256.079 393.308 256.149 393.205 256.196C393.103 256.233 392.972 256.252 392.813 256.252H383.937C384.04 257.727 384.437 258.809 385.127 259.5C385.818 260.191 386.733 260.536 387.871 260.536C388.431 260.536 388.912 260.471 389.313 260.34C389.724 260.209 390.079 260.065 390.377 259.906C390.685 259.747 390.951 259.603 391.175 259.472C391.409 259.341 391.633 259.276 391.847 259.276C391.987 259.276 392.109 259.304 392.211 259.36C392.314 259.416 392.403 259.495 392.477 259.598L393.485 260.858C393.103 261.306 392.673 261.684 392.197 261.992C391.721 262.291 391.222 262.533 390.699 262.72C390.186 262.897 389.659 263.023 389.117 263.098C388.585 263.173 388.067 263.21 387.563 263.21C386.565 263.21 385.636 263.047 384.777 262.72C383.919 262.384 383.172 261.894 382.537 261.25C381.903 260.597 381.403 259.794 381.039 258.842C380.675 257.881 380.493 256.77 380.493 255.51C380.493 254.53 380.652 253.611 380.969 252.752C381.287 251.884 381.739 251.133 382.327 250.498C382.925 249.854 383.648 249.345 384.497 248.972C385.356 248.599 386.322 248.412 387.395 248.412ZM387.465 250.89C386.457 250.89 385.669 251.175 385.099 251.744C384.53 252.313 384.166 253.121 384.007 254.166H390.503C390.503 253.718 390.443 253.298 390.321 252.906C390.2 252.505 390.013 252.155 389.761 251.856C389.509 251.557 389.192 251.324 388.809 251.156C388.427 250.979 387.979 250.89 387.465 250.89ZM402.352 248.412C403.258 248.412 404.088 248.557 404.844 248.846C405.61 249.135 406.268 249.56 406.818 250.12C407.369 250.671 407.798 251.352 408.106 252.164C408.414 252.967 408.568 253.886 408.568 254.922C408.568 255.183 408.554 255.403 408.526 255.58C408.508 255.748 408.466 255.883 408.4 255.986C408.344 256.079 408.265 256.149 408.162 256.196C408.06 256.233 407.929 256.252 407.77 256.252H398.894C398.997 257.727 399.394 258.809 400.084 259.5C400.775 260.191 401.69 260.536 402.828 260.536C403.388 260.536 403.869 260.471 404.27 260.34C404.681 260.209 405.036 260.065 405.334 259.906C405.642 259.747 405.908 259.603 406.132 259.472C406.366 259.341 406.59 259.276 406.804 259.276C406.944 259.276 407.066 259.304 407.168 259.36C407.271 259.416 407.36 259.495 407.434 259.598L408.442 260.858C408.06 261.306 407.63 261.684 407.154 261.992C406.678 262.291 406.179 262.533 405.656 262.72C405.143 262.897 404.616 263.023 404.074 263.098C403.542 263.173 403.024 263.21 402.52 263.21C401.522 263.21 400.593 263.047 399.734 262.72C398.876 262.384 398.129 261.894 397.494 261.25C396.86 260.597 396.36 259.794 395.996 258.842C395.632 257.881 395.45 256.77 395.45 255.51C395.45 254.53 395.609 253.611 395.926 252.752C396.244 251.884 396.696 251.133 397.284 250.498C397.882 249.854 398.605 249.345 399.454 248.972C400.313 248.599 401.279 248.412 402.352 248.412ZM402.422 250.89C401.414 250.89 400.626 251.175 400.056 251.744C399.487 252.313 399.123 253.121 398.964 254.166H405.46C405.46 253.718 405.4 253.298 405.278 252.906C405.157 252.505 404.97 252.155 404.718 251.856C404.466 251.557 404.149 251.324 403.766 251.156C403.384 250.979 402.936 250.89 402.422 250.89ZM411.373 263V248.636H413.403C413.758 248.636 414.005 248.701 414.145 248.832C414.285 248.963 414.379 249.187 414.425 249.504L414.635 251.24C415.149 250.353 415.751 249.653 416.441 249.14C417.132 248.627 417.907 248.37 418.765 248.37C419.475 248.37 420.063 248.533 420.529 248.86L420.081 251.45C420.053 251.618 419.993 251.739 419.899 251.814C419.806 251.879 419.68 251.912 419.521 251.912C419.381 251.912 419.19 251.879 418.947 251.814C418.705 251.749 418.383 251.716 417.981 251.716C417.263 251.716 416.647 251.917 416.133 252.318C415.62 252.71 415.186 253.289 414.831 254.054V263H411.373ZM431.329 251.436C431.236 251.585 431.138 251.693 431.035 251.758C430.932 251.814 430.802 251.842 430.643 251.842C430.475 251.842 430.293 251.795 430.097 251.702C429.91 251.609 429.691 251.506 429.439 251.394C429.187 251.273 428.898 251.165 428.571 251.072C428.254 250.979 427.876 250.932 427.437 250.932C426.756 250.932 426.219 251.077 425.827 251.366C425.435 251.655 425.239 252.033 425.239 252.5C425.239 252.808 425.337 253.069 425.533 253.284C425.738 253.489 426.004 253.671 426.331 253.83C426.667 253.989 427.045 254.133 427.465 254.264C427.885 254.385 428.314 254.521 428.753 254.67C429.192 254.819 429.621 254.992 430.041 255.188C430.461 255.375 430.834 255.617 431.161 255.916C431.497 256.205 431.763 256.555 431.959 256.966C432.164 257.377 432.267 257.871 432.267 258.45C432.267 259.141 432.141 259.78 431.889 260.368C431.637 260.947 431.268 261.451 430.783 261.88C430.298 262.3 429.696 262.631 428.977 262.874C428.268 263.107 427.451 263.224 426.527 263.224C426.032 263.224 425.547 263.177 425.071 263.084C424.604 263 424.152 262.879 423.713 262.72C423.284 262.561 422.882 262.375 422.509 262.16C422.145 261.945 421.823 261.712 421.543 261.46L422.341 260.144C422.444 259.985 422.565 259.864 422.705 259.78C422.845 259.696 423.022 259.654 423.237 259.654C423.452 259.654 423.652 259.715 423.839 259.836C424.035 259.957 424.259 260.088 424.511 260.228C424.763 260.368 425.057 260.499 425.393 260.62C425.738 260.741 426.172 260.802 426.695 260.802C427.106 260.802 427.456 260.755 427.745 260.662C428.044 260.559 428.286 260.429 428.473 260.27C428.669 260.111 428.809 259.929 428.893 259.724C428.986 259.509 429.033 259.29 429.033 259.066C429.033 258.73 428.93 258.455 428.725 258.24C428.529 258.025 428.263 257.839 427.927 257.68C427.6 257.521 427.222 257.381 426.793 257.26C426.373 257.129 425.939 256.989 425.491 256.84C425.052 256.691 424.618 256.518 424.189 256.322C423.769 256.117 423.391 255.86 423.055 255.552C422.728 255.244 422.462 254.866 422.257 254.418C422.061 253.97 421.963 253.429 421.963 252.794C421.963 252.206 422.08 251.646 422.313 251.114C422.546 250.582 422.887 250.12 423.335 249.728C423.792 249.327 424.357 249.009 425.029 248.776C425.71 248.533 426.494 248.412 427.381 248.412C428.37 248.412 429.271 248.575 430.083 248.902C430.895 249.229 431.572 249.658 432.113 250.19L431.329 251.436Z" fill="#002E60"/>
<path d="M343.172 120.828C344.734 122.391 347.266 122.391 348.828 120.828L374.284 95.3726C375.846 93.8105 375.846 91.2778 374.284 89.7157C372.722 88.1536 370.19 88.1536 368.627 89.7157L346 112.343L323.373 89.7157C321.81 88.1536 319.278 88.1536 317.716 89.7157C316.154 91.2778 316.154 93.8105 317.716 95.3726L343.172 120.828ZM118 118C118 57.314 168.078 8 230 8V0C163.792 0 110 52.7651 110 118H118ZM230 8C291.922 8 342 57.314 342 118H350C350 52.7651 296.208 0 230 0V8Z" fill="var(--harmony-brand, #6FC0C6)"/>
<g clip-path="url(#clip0_2707_48266)">
<path d="M374.001 200.689C368.396 200.689 364.006 203.997 364.006 208.219C364.006 212.443 368.396 215.752 374.001 215.752C379.605 215.752 383.995 212.443 383.995 208.219C383.995 203.997 379.605 200.689 374.001 200.689ZM374.001 210.616C371.079 210.616 369.141 209.173 369.141 208.219C369.141 207.266 371.079 205.825 374.001 205.825C376.922 205.825 378.859 207.266 378.859 208.219C378.86 209.174 376.922 210.616 374.001 210.616Z" fill="#002E60"/>
<path d="M365.997 194.031C366.38 193.649 366.601 193.12 366.601 192.578C366.601 192.039 366.38 191.509 365.997 191.124C365.617 190.744 365.086 190.523 364.546 190.523C364.005 190.523 363.476 190.744 363.093 191.124C362.71 191.509 362.492 192.039 362.492 192.578C362.492 193.12 362.71 193.648 363.093 194.031C363.476 194.414 364.007 194.632 364.546 194.632C365.086 194.632 365.615 194.414 365.997 194.031Z" fill="#002E60"/>
<path d="M383.453 190.523C382.911 190.523 382.382 190.744 381.999 191.124C381.617 191.507 381.398 192.039 381.398 192.578C381.398 193.12 381.616 193.648 381.999 194.031C382.382 194.414 382.911 194.632 383.453 194.632C383.992 194.632 384.521 194.414 384.906 194.031C385.289 193.649 385.507 193.12 385.507 192.578C385.507 192.039 385.289 191.507 384.906 191.124C384.524 190.744 383.995 190.523 383.453 190.523Z" fill="#002E60"/>
<path d="M411.831 177.302C411.501 176.439 410.734 175.819 409.82 175.68C409.583 175.644 403.954 174.791 399.916 174.791C398.091 174.791 396.816 174.963 395.902 175.334C393.798 176.186 390.946 178.541 389.418 181.24C388.308 180.07 387.104 179.055 385.813 178.198L396.328 167.661C396.809 167.18 397.078 166.528 397.078 165.848V161.683L405.852 155.754C407.027 154.96 407.335 153.363 406.541 152.188C405.747 151.013 404.151 150.705 402.976 151.499L397.079 155.484V150.958C397.079 149.54 395.929 148.39 394.511 148.39C393.092 148.39 391.943 149.54 391.943 150.958V155.484L386.046 151.499C384.871 150.705 383.275 151.013 382.481 152.189C381.687 153.364 381.995 154.96 383.17 155.754L391.943 161.683V164.786L389.576 167.157L381.094 161.424C379.919 160.631 378.323 160.939 377.528 162.114C376.734 163.289 377.043 164.885 378.218 165.679L385.882 170.859L380.913 175.838C378.766 175.146 376.456 174.792 374.001 174.792C371.612 174.792 369.361 175.128 367.264 175.784L362.256 170.766L369.782 165.68C370.957 164.886 371.266 163.289 370.472 162.114C369.678 160.94 368.081 160.631 366.907 161.425L358.562 167.064L356.058 164.554V161.683L364.83 155.754C366.006 154.96 366.314 153.364 365.52 152.189C364.726 151.013 363.13 150.705 361.955 151.499L356.058 155.484V150.726C356.058 149.308 354.908 148.158 353.49 148.158C352.072 148.158 350.922 149.308 350.922 150.726V155.484L345.025 151.499C343.85 150.705 342.254 151.013 341.459 152.189C340.665 153.364 340.974 154.96 342.149 155.754L350.922 161.683V165.616C350.922 166.296 351.192 166.949 351.672 167.43L362.328 178.107C360.986 178.982 359.736 180.026 358.586 181.236C356.971 178.434 353.915 176.07 352.097 175.333C351.184 174.964 349.909 174.792 348.085 174.792C344.046 174.792 338.418 175.644 338.18 175.68C337.267 175.82 336.499 176.439 336.169 177.302C335.839 178.165 335.999 179.138 336.586 179.851C338.166 181.769 343.547 188.116 346.462 189.298C347.889 189.875 349.915 190.219 351.883 190.219C352.291 190.219 352.683 190.202 353.063 190.173C351.269 194.723 350.276 200.028 350.276 205.353C350.276 211.68 352.819 216.695 357.631 219.855C361.657 222.5 367.165 223.841 374.001 223.841C380.837 223.841 386.344 222.5 390.37 219.855C395.181 216.695 397.724 211.68 397.724 205.353C397.724 200.028 396.731 194.723 394.938 190.173C395.318 190.202 395.71 190.219 396.118 190.219C398.085 190.219 400.112 189.875 401.541 189.297C404.454 188.116 409.835 181.769 411.414 179.851C412.002 179.139 412.161 178.165 411.831 177.302ZM348.39 184.538C347.666 184.23 345.797 182.473 343.684 180.18C345.154 180.039 346.741 179.927 348.085 179.927C349.687 179.927 350.159 180.09 350.17 180.093C351.912 180.799 354.297 183.49 354.504 184.644C354.163 184.827 353.292 185.084 351.883 185.084C350.402 185.083 349.06 184.809 348.39 184.538ZM387.551 215.563C384.421 217.619 379.735 218.705 374.001 218.705C368.266 218.705 363.58 217.619 360.45 215.563C357.06 213.336 355.412 209.996 355.412 205.353C355.412 195.909 359.327 179.927 374.001 179.927C388.674 179.927 392.589 195.909 392.589 205.353C392.589 209.996 390.941 213.336 387.551 215.563ZM399.614 184.537C398.941 184.809 397.598 185.083 396.118 185.083C394.708 185.083 393.838 184.827 393.496 184.644C393.704 183.49 396.088 180.8 397.822 180.097C397.842 180.09 398.314 179.927 399.916 179.927C401.258 179.927 402.841 180.038 404.31 180.18C402.296 182.361 400.374 184.213 399.614 184.537Z" fill="#002E60"/>
</g>
<defs>
<filter id="filter0_d_2707_48266" x="251" y="97" width="240" height="218" filterUnits="userSpaceOnUse" color-interpolation-filters="sRGB">
<feFlood flood-opacity="0" result="BackgroundImageFix"/>
<feColorMatrix in="SourceAlpha" type="matrix" values="0 0 0 0 0 0 0 0 0 0 0 0 0 0 0 0 0 0 127 0" result="hardAlpha"/>
<feOffset dx="4" dy="4"/>
<feGaussianBlur stdDeviation="2"/>
<feComposite in2="hardAlpha" operator="out"/>
<feColorMatrix type="matrix" values="0 0 0 0 0 0 0 0 0 0 0 0 0 0 0 0 0 0 0.05 0"/>
<feBlend mode="normal" in2="BackgroundImageFix" result="effect1_dropShadow_2707_48266"/>
<feBlend mode="normal" in="SourceGraphic" in2="effect1_dropShadow_2707_48266" result="shape"/>
</filter>
<filter id="filter1_d_2707_48266" x="0" y="97" width="240" height="218" filterUnits="userSpaceOnUse" color-interpolation-filters="sRGB">
<feFlood flood-opacity="0" result="BackgroundImageFix"/>
<feColorMatrix in="SourceAlpha" type="matrix" values="0 0 0 0 0 0 0 0 0 0 0 0 0 0 0 0 0 0 127 0" result="hardAlpha"/>
<feOffset dx="4" dy="4"/>
<feGaussianBlur stdDeviation="2"/>
<feComposite in2="hardAlpha" operator="out"/>
<feColorMatrix type="matrix" values="0 0 0 0 0 0 0 0 0 0 0 0 0 0 0 0 0 0 0.05 0"/>
<feBlend mode="normal" in2="BackgroundImageFix" result="effect1_dropShadow_2707_48266"/>
<feBlend mode="normal" in="SourceGraphic" in2="effect1_dropShadow_2707_48266" result="shape"/>
</filter>
<clipPath id="clip0_2707_48266">
<rect width="76" height="76" fill="white" transform="translate(336 148)"/>
</clipPath>
</defs>
</svg>
