<svg width="491" height="315" viewBox="0 0 491 315" fill="none" xmlns="http://www.w3.org/2000/svg">
<g filter="url(#filter0_d_2707_48267)">
<rect x="251" y="97" width="232" height="210" rx="12" fill="#FCFCFC"/>
<rect x="251.5" y="97.5" width="231" height="209" rx="11.5" stroke="#E8E8E8"/>
</g>
<g filter="url(#filter1_d_2707_48267)">
<rect y="97" width="232" height="210" rx="12" fill="#E8E8E8"/>
<rect x="0.5" y="97.5" width="231" height="209" rx="11.5" stroke="#E8E8E8"/>
</g>
<path d="M62.6572 251.388C63.3665 251.388 63.9825 251.299 64.5052 251.122C65.0372 250.945 65.4712 250.702 65.8072 250.394C66.1525 250.077 66.4092 249.703 66.5772 249.274C66.7452 248.845 66.8292 248.373 66.8292 247.86C66.8292 246.833 66.4885 246.045 65.8072 245.494C65.1352 244.943 64.1038 244.668 62.7132 244.668H60.3052V251.388H62.6572ZM72.3452 262H68.9432C68.2992 262 67.8325 261.748 67.5432 261.244L63.2872 254.762C63.1285 254.519 62.9512 254.347 62.7552 254.244C62.5685 254.141 62.2885 254.09 61.9152 254.09H60.3052V262H56.5392V241.756H62.7132C64.0852 241.756 65.2612 241.901 66.2412 242.19C67.2305 242.47 68.0378 242.867 68.6632 243.38C69.2978 243.893 69.7645 244.509 70.0632 245.228C70.3618 245.937 70.5112 246.721 70.5112 247.58C70.5112 248.261 70.4085 248.905 70.2032 249.512C70.0072 250.119 69.7178 250.669 69.3352 251.164C68.9618 251.659 68.4952 252.093 67.9352 252.466C67.3845 252.839 66.7545 253.133 66.0452 253.348C66.2878 253.488 66.5118 253.656 66.7172 253.852C66.9225 254.039 67.1092 254.263 67.2772 254.524L72.3452 262ZM82.3097 253.166C82.3097 252.718 82.2443 252.298 82.1137 251.906C81.9923 251.505 81.8057 251.155 81.5537 250.856C81.3017 250.557 80.9797 250.324 80.5877 250.156C80.205 249.979 79.757 249.89 79.2437 249.89C78.245 249.89 77.4563 250.175 76.8777 250.744C76.3083 251.313 75.9443 252.121 75.7857 253.166H82.3097ZM75.7157 255.252C75.7717 255.989 75.9023 256.629 76.1077 257.17C76.313 257.702 76.5837 258.145 76.9197 258.5C77.2557 258.845 77.6523 259.107 78.1097 259.284C78.5763 259.452 79.0897 259.536 79.6497 259.536C80.2097 259.536 80.6903 259.471 81.0917 259.34C81.5023 259.209 81.857 259.065 82.1557 258.906C82.4637 258.747 82.7297 258.603 82.9537 258.472C83.187 258.341 83.411 258.276 83.6257 258.276C83.915 258.276 84.1297 258.383 84.2697 258.598L85.2637 259.858C84.881 260.306 84.4517 260.684 83.9757 260.992C83.4997 261.291 83.0003 261.533 82.4777 261.72C81.9643 261.897 81.437 262.023 80.8957 262.098C80.3637 262.173 79.8457 262.21 79.3417 262.21C78.343 262.21 77.4143 262.047 76.5557 261.72C75.697 261.384 74.9503 260.894 74.3157 260.25C73.681 259.597 73.1817 258.794 72.8177 257.842C72.4537 256.881 72.2717 255.77 72.2717 254.51C72.2717 253.53 72.4303 252.611 72.7477 251.752C73.065 250.884 73.5177 250.133 74.1057 249.498C74.703 248.854 75.4263 248.345 76.2757 247.972C77.1343 247.599 78.1003 247.412 79.1737 247.412C80.079 247.412 80.9143 247.557 81.6797 247.846C82.445 248.135 83.103 248.56 83.6537 249.12C84.2043 249.671 84.6337 250.352 84.9417 251.164C85.259 251.967 85.4177 252.886 85.4177 253.922C85.4177 254.445 85.3617 254.799 85.2497 254.986C85.1377 255.163 84.923 255.252 84.6057 255.252H75.7157ZM91.5967 247.636V262H88.1247V247.636H91.5967ZM92.0727 243.45C92.0727 243.749 92.012 244.029 91.8907 244.29C91.7694 244.551 91.606 244.78 91.4007 244.976C91.2047 245.172 90.9714 245.331 90.7007 245.452C90.43 245.564 90.1407 245.62 89.8327 245.62C89.534 245.62 89.2494 245.564 88.9787 245.452C88.7174 245.331 88.4887 245.172 88.2927 244.976C88.0967 244.78 87.938 244.551 87.8167 244.29C87.7047 244.029 87.6487 243.749 87.6487 243.45C87.6487 243.142 87.7047 242.853 87.8167 242.582C87.938 242.311 88.0967 242.078 88.2927 241.882C88.4887 241.686 88.7174 241.532 88.9787 241.42C89.2494 241.299 89.534 241.238 89.8327 241.238C90.1407 241.238 90.43 241.299 90.7007 241.42C90.9714 241.532 91.2047 241.686 91.4007 241.882C91.606 242.078 91.7694 242.311 91.8907 242.582C92.012 242.853 92.0727 243.142 92.0727 243.45ZM98.3561 249.4C98.6454 249.111 98.9487 248.845 99.2661 248.602C99.5927 248.35 99.9334 248.14 100.288 247.972C100.652 247.795 101.039 247.659 101.45 247.566C101.861 247.463 102.309 247.412 102.794 247.412C103.578 247.412 104.273 247.547 104.88 247.818C105.487 248.079 105.991 248.453 106.392 248.938C106.803 249.414 107.111 249.988 107.316 250.66C107.531 251.323 107.638 252.055 107.638 252.858V262H104.18V252.858C104.18 251.981 103.979 251.304 103.578 250.828C103.177 250.343 102.565 250.1 101.744 250.1C101.147 250.1 100.587 250.235 100.064 250.506C99.5414 250.777 99.0467 251.145 98.5801 251.612V262H95.1221V247.636H97.2361C97.6841 247.636 97.9781 247.846 98.1181 248.266L98.3561 249.4ZM119.943 251.304C119.551 250.828 119.121 250.492 118.655 250.296C118.197 250.1 117.703 250.002 117.171 250.002C116.648 250.002 116.177 250.1 115.757 250.296C115.337 250.492 114.977 250.791 114.679 251.192C114.38 251.584 114.151 252.088 113.993 252.704C113.834 253.311 113.755 254.029 113.755 254.86C113.755 255.7 113.82 256.414 113.951 257.002C114.091 257.581 114.287 258.057 114.539 258.43C114.791 258.794 115.099 259.06 115.463 259.228C115.827 259.387 116.233 259.466 116.681 259.466C117.399 259.466 118.011 259.317 118.515 259.018C119.019 258.719 119.495 258.295 119.943 257.744V251.304ZM123.401 241.196V262H121.287C120.829 262 120.54 261.79 120.419 261.37L120.125 259.984C119.546 260.647 118.879 261.183 118.123 261.594C117.376 262.005 116.503 262.21 115.505 262.21C114.721 262.21 114.002 262.047 113.349 261.72C112.695 261.393 112.131 260.922 111.655 260.306C111.188 259.681 110.824 258.911 110.563 257.996C110.311 257.081 110.185 256.036 110.185 254.86C110.185 253.796 110.329 252.807 110.619 251.892C110.908 250.977 111.323 250.184 111.865 249.512C112.406 248.84 113.055 248.317 113.811 247.944C114.567 247.561 115.416 247.37 116.359 247.37C117.161 247.37 117.847 247.496 118.417 247.748C118.986 248 119.495 248.341 119.943 248.77V241.196H123.401ZM136.067 253.166C136.067 252.718 136.002 252.298 135.871 251.906C135.75 251.505 135.563 251.155 135.311 250.856C135.059 250.557 134.737 250.324 134.345 250.156C133.963 249.979 133.515 249.89 133.001 249.89C132.003 249.89 131.214 250.175 130.635 250.744C130.066 251.313 129.702 252.121 129.543 253.166H136.067ZM129.473 255.252C129.529 255.989 129.66 256.629 129.865 257.17C130.071 257.702 130.341 258.145 130.677 258.5C131.013 258.845 131.41 259.107 131.867 259.284C132.334 259.452 132.847 259.536 133.407 259.536C133.967 259.536 134.448 259.471 134.849 259.34C135.26 259.209 135.615 259.065 135.913 258.906C136.221 258.747 136.487 258.603 136.711 258.472C136.945 258.341 137.169 258.276 137.383 258.276C137.673 258.276 137.887 258.383 138.027 258.598L139.021 259.858C138.639 260.306 138.209 260.684 137.733 260.992C137.257 261.291 136.758 261.533 136.235 261.72C135.722 261.897 135.195 262.023 134.653 262.098C134.121 262.173 133.603 262.21 133.099 262.21C132.101 262.21 131.172 262.047 130.313 261.72C129.455 261.384 128.708 260.894 128.073 260.25C127.439 259.597 126.939 258.794 126.575 257.842C126.211 256.881 126.029 255.77 126.029 254.51C126.029 253.53 126.188 252.611 126.505 251.752C126.823 250.884 127.275 250.133 127.863 249.498C128.461 248.854 129.184 248.345 130.033 247.972C130.892 247.599 131.858 247.412 132.931 247.412C133.837 247.412 134.672 247.557 135.437 247.846C136.203 248.135 136.861 248.56 137.411 249.12C137.962 249.671 138.391 250.352 138.699 251.164C139.017 251.967 139.175 252.886 139.175 253.922C139.175 254.445 139.119 254.799 139.007 254.986C138.895 255.163 138.681 255.252 138.363 255.252H129.473ZM151.025 253.166C151.025 252.718 150.959 252.298 150.829 251.906C150.707 251.505 150.521 251.155 150.269 250.856C150.017 250.557 149.695 250.324 149.303 250.156C148.92 249.979 148.472 249.89 147.959 249.89C146.96 249.89 146.171 250.175 145.593 250.744C145.023 251.313 144.659 252.121 144.501 253.166H151.025ZM144.431 255.252C144.487 255.989 144.617 256.629 144.823 257.17C145.028 257.702 145.299 258.145 145.635 258.5C145.971 258.845 146.367 259.107 146.825 259.284C147.291 259.452 147.805 259.536 148.365 259.536C148.925 259.536 149.405 259.471 149.807 259.34C150.217 259.209 150.572 259.065 150.871 258.906C151.179 258.747 151.445 258.603 151.669 258.472C151.902 258.341 152.126 258.276 152.341 258.276C152.63 258.276 152.845 258.383 152.985 258.598L153.979 259.858C153.596 260.306 153.167 260.684 152.691 260.992C152.215 261.291 151.715 261.533 151.193 261.72C150.679 261.897 150.152 262.023 149.611 262.098C149.079 262.173 148.561 262.21 148.057 262.21C147.058 262.21 146.129 262.047 145.271 261.72C144.412 261.384 143.665 260.894 143.031 260.25C142.396 259.597 141.897 258.794 141.533 257.842C141.169 256.881 140.986 255.77 140.986 254.51C140.986 253.53 141.145 252.611 141.463 251.752C141.78 250.884 142.233 250.133 142.821 249.498C143.418 248.854 144.141 248.345 144.991 247.972C145.849 247.599 146.815 247.412 147.889 247.412C148.794 247.412 149.629 247.557 150.395 247.846C151.16 248.135 151.818 248.56 152.369 249.12C152.919 249.671 153.349 250.352 153.657 251.164C153.974 251.967 154.132 252.886 154.132 253.922C154.132 254.445 154.077 254.799 153.965 254.986C153.853 255.163 153.638 255.252 153.321 255.252H144.431ZM159.99 250.128C160.438 249.269 160.97 248.597 161.586 248.112C162.202 247.617 162.93 247.37 163.77 247.37C164.432 247.37 164.964 247.515 165.366 247.804L165.142 250.394C165.095 250.562 165.025 250.683 164.932 250.758C164.848 250.823 164.731 250.856 164.582 250.856C164.442 250.856 164.232 250.833 163.952 250.786C163.681 250.739 163.415 250.716 163.154 250.716C162.771 250.716 162.43 250.772 162.132 250.884C161.833 250.996 161.562 251.159 161.32 251.374C161.086 251.579 160.876 251.831 160.69 252.13C160.512 252.429 160.344 252.769 160.186 253.152V262H156.728V247.636H158.758C159.112 247.636 159.36 247.701 159.5 247.832C159.64 247.953 159.733 248.177 159.78 248.504L159.99 250.128ZM175.882 250.436C175.789 250.585 175.691 250.693 175.588 250.758C175.485 250.814 175.355 250.842 175.196 250.842C175.028 250.842 174.846 250.795 174.65 250.702C174.463 250.609 174.244 250.506 173.992 250.394C173.74 250.273 173.451 250.165 173.124 250.072C172.807 249.979 172.429 249.932 171.99 249.932C171.309 249.932 170.772 250.077 170.38 250.366C169.997 250.655 169.806 251.033 169.806 251.5C169.806 251.808 169.904 252.069 170.1 252.284C170.305 252.489 170.571 252.671 170.898 252.83C171.234 252.989 171.612 253.133 172.032 253.264C172.452 253.385 172.877 253.521 173.306 253.67C173.745 253.819 174.174 253.992 174.594 254.188C175.014 254.375 175.387 254.617 175.714 254.916C176.05 255.205 176.316 255.555 176.512 255.966C176.717 256.377 176.82 256.871 176.82 257.45C176.82 258.141 176.694 258.78 176.442 259.368C176.199 259.947 175.835 260.451 175.35 260.88C174.865 261.3 174.263 261.631 173.544 261.874C172.835 262.107 172.013 262.224 171.08 262.224C170.585 262.224 170.1 262.177 169.624 262.084C169.157 262 168.705 261.879 168.266 261.72C167.837 261.561 167.435 261.375 167.062 261.16C166.698 260.945 166.376 260.712 166.096 260.46L166.894 259.144C166.997 258.985 167.118 258.864 167.258 258.78C167.398 258.696 167.575 258.654 167.79 258.654C168.005 258.654 168.205 258.715 168.392 258.836C168.588 258.957 168.812 259.088 169.064 259.228C169.316 259.368 169.61 259.499 169.946 259.62C170.291 259.741 170.725 259.802 171.248 259.802C171.659 259.802 172.009 259.755 172.298 259.662C172.597 259.559 172.839 259.429 173.026 259.27C173.222 259.111 173.362 258.929 173.446 258.724C173.539 258.509 173.586 258.29 173.586 258.066C173.586 257.73 173.483 257.455 173.278 257.24C173.082 257.025 172.816 256.839 172.48 256.68C172.153 256.521 171.775 256.381 171.346 256.26C170.926 256.129 170.492 255.989 170.044 255.84C169.605 255.691 169.171 255.518 168.742 255.322C168.322 255.117 167.944 254.86 167.608 254.552C167.281 254.244 167.015 253.866 166.81 253.418C166.614 252.97 166.516 252.429 166.516 251.794C166.516 251.206 166.633 250.646 166.866 250.114C167.099 249.582 167.44 249.12 167.888 248.728C168.345 248.327 168.91 248.009 169.582 247.776C170.263 247.533 171.047 247.412 171.934 247.412C172.923 247.412 173.824 247.575 174.636 247.902C175.448 248.229 176.125 248.658 176.666 249.19L175.882 250.436Z" fill="#6FC0C6"/>
<g clip-path="url(#clip0_2707_48267)">
<path d="M120.001 199.689C114.396 199.689 110.006 202.997 110.006 207.219C110.006 211.443 114.396 214.752 120.001 214.752C125.605 214.752 129.995 211.443 129.995 207.219C129.995 202.997 125.605 199.689 120.001 199.689ZM120.001 209.616C117.079 209.616 115.141 208.173 115.141 207.219C115.141 206.266 117.079 204.825 120.001 204.825C122.922 204.825 124.859 206.266 124.859 207.219C124.86 208.174 122.922 209.616 120.001 209.616Z" fill="#6FC0C6"/>
<path d="M111.997 193.031C112.38 192.649 112.601 192.12 112.601 191.578C112.601 191.039 112.38 190.509 111.997 190.124C111.617 189.744 111.086 189.523 110.546 189.523C110.005 189.523 109.476 189.744 109.093 190.124C108.71 190.509 108.492 191.039 108.492 191.578C108.492 192.12 108.71 192.648 109.093 193.031C109.476 193.414 110.007 193.632 110.546 193.632C111.086 193.632 111.615 193.414 111.997 193.031Z" fill="#6FC0C6"/>
<path d="M129.453 189.523C128.911 189.523 128.382 189.744 127.999 190.124C127.617 190.507 127.398 191.039 127.398 191.578C127.398 192.12 127.616 192.648 127.999 193.031C128.382 193.414 128.911 193.632 129.453 193.632C129.992 193.632 130.521 193.414 130.906 193.031C131.289 192.649 131.507 192.12 131.507 191.578C131.507 191.039 131.289 190.507 130.906 190.124C130.524 189.744 129.995 189.523 129.453 189.523Z" fill="#6FC0C6"/>
<path d="M157.831 176.302C157.501 175.439 156.734 174.819 155.82 174.68C155.583 174.644 149.954 173.791 145.916 173.791C144.091 173.791 142.816 173.963 141.902 174.334C139.798 175.186 136.946 177.541 135.418 180.24C134.308 179.07 133.104 178.055 131.813 177.198L142.328 166.661C142.809 166.18 143.078 165.528 143.078 164.848V160.683L151.852 154.754C153.027 153.96 153.335 152.363 152.541 151.188C151.747 150.013 150.151 149.705 148.976 150.499L143.079 154.484V149.958C143.079 148.54 141.929 147.39 140.511 147.39C139.092 147.39 137.943 148.54 137.943 149.958V154.484L132.046 150.499C130.871 149.705 129.275 150.013 128.481 151.189C127.687 152.364 127.995 153.96 129.17 154.754L137.943 160.683V163.786L135.576 166.157L127.094 160.424C125.919 159.631 124.323 159.939 123.528 161.114C122.734 162.289 123.043 163.885 124.218 164.679L131.882 169.859L126.913 174.838C124.766 174.146 122.456 173.792 120.001 173.792C117.612 173.792 115.361 174.128 113.264 174.784L108.256 169.766L115.782 164.68C116.957 163.886 117.266 162.289 116.472 161.114C115.678 159.94 114.081 159.631 112.907 160.425L104.562 166.064L102.058 163.554V160.683L110.83 154.754C112.006 153.96 112.314 152.364 111.52 151.189C110.726 150.013 109.13 149.705 107.955 150.499L102.058 154.484V149.726C102.058 148.308 100.908 147.158 99.4898 147.158C98.0717 147.158 96.922 148.308 96.922 149.726V154.484L91.0247 150.499C89.8499 149.705 88.2536 150.013 87.4593 151.189C86.665 152.364 86.9742 153.96 88.149 154.754L96.9222 160.683V164.616C96.9222 165.296 97.1919 165.949 97.6725 166.43L108.328 177.107C106.986 177.982 105.736 179.026 104.586 180.236C102.971 177.434 99.9154 175.07 98.0973 174.333C97.184 173.964 95.9091 173.792 94.0846 173.792C90.0461 173.792 84.4178 174.644 84.1801 174.68C83.2668 174.82 82.4989 175.439 82.1693 176.302C81.8394 177.165 81.9986 178.138 82.5861 178.851C84.166 180.769 89.5466 187.116 92.4615 188.298C93.8886 188.875 95.9153 189.219 97.8826 189.219C98.291 189.219 98.6825 189.202 99.063 189.173C97.2692 193.723 96.2761 199.028 96.2761 204.353C96.2761 210.68 98.8192 215.695 103.631 218.855C107.657 221.5 113.165 222.841 120.001 222.841C126.837 222.841 132.344 221.5 136.37 218.855C141.181 215.695 143.724 210.68 143.724 204.353C143.724 199.028 142.731 193.723 140.938 189.173C141.318 189.202 141.71 189.219 142.118 189.219C144.085 189.219 146.112 188.875 147.541 188.297C150.454 187.116 155.835 180.769 157.414 178.851C158.002 178.139 158.161 177.165 157.831 176.302ZM94.3904 183.538C93.6662 183.23 91.7975 181.473 89.6835 179.18C91.1539 179.039 92.7409 178.927 94.0851 178.927C95.6865 178.927 96.1592 179.09 96.1696 179.093C97.912 179.799 100.297 182.49 100.504 183.644C100.163 183.827 99.2923 184.084 97.8831 184.084C96.4022 184.083 95.0596 183.809 94.3904 183.538ZM133.551 214.563C130.421 216.619 125.735 217.705 120.001 217.705C114.266 217.705 109.58 216.619 106.45 214.563C103.06 212.336 101.412 208.996 101.412 204.353C101.412 194.909 105.327 178.927 120.001 178.927C134.674 178.927 138.589 194.909 138.589 204.353C138.589 208.996 136.941 212.336 133.551 214.563ZM145.614 183.537C144.941 183.809 143.598 184.083 142.118 184.083C140.708 184.083 139.838 183.827 139.496 183.644C139.704 182.49 142.088 179.8 143.822 179.097C143.842 179.09 144.314 178.927 145.916 178.927C147.258 178.927 148.841 179.038 150.31 179.18C148.296 181.361 146.374 183.213 145.614 183.537Z" fill="#6FC0C6"/>
</g>
<path d="M343.172 120.828C344.734 122.391 347.266 122.391 348.828 120.828L374.284 95.3726C375.846 93.8105 375.846 91.2778 374.284 89.7157C372.722 88.1536 370.19 88.1536 368.627 89.7157L346 112.343L323.373 89.7157C321.81 88.1536 319.278 88.1536 317.716 89.7157C316.154 91.2778 316.154 93.8105 317.716 95.3726L343.172 120.828ZM118 118C118 57.314 168.078 8 230 8V0C163.792 0 110 52.7651 110 118H118ZM230 8C291.922 8 342 57.314 342 118H350C350 52.7651 296.208 0 230 0V8Z" fill="#6FC0C6"/>
<path d="M374.266 157.707C373.215 157.707 372.363 158.559 372.363 159.61C372.363 160.662 373.215 161.514 374.266 161.514C375.318 161.514 376.17 160.662 376.17 159.61C376.17 158.559 375.318 157.707 374.266 157.707Z" fill="#002E60"/>
<path d="M372.724 169.009C371.962 168.571 370.989 168.833 370.551 169.595C370.318 170 369.879 170.254 369.409 170.256C369.407 170.256 369.407 170.256 369.405 170.256H369.398C368.929 170.254 368.493 170 368.258 169.595C368.121 169.36 367.927 169.154 367.674 169.009C366.912 168.571 365.94 168.833 365.501 169.595C365.266 170.001 364.826 170.256 364.354 170.256C363.881 170.256 363.443 170.001 363.208 169.595C362.769 168.833 361.797 168.571 361.035 169.009C360.273 169.448 360.013 170.422 360.451 171.182C360.976 172.096 361.804 172.779 362.762 173.143V177.049C362.762 179.319 364.608 181.165 366.878 181.165C369.149 181.165 370.996 179.319 370.996 177.049V173.143C371.957 172.781 372.782 172.096 373.309 171.182C373.748 170.422 373.486 169.448 372.724 169.009ZM367.814 177.049C367.814 177.564 367.395 177.983 366.878 177.983C366.364 177.983 365.945 177.564 365.945 177.049V173.143C366.274 173.019 366.589 172.859 366.88 172.661C367.17 172.859 367.485 173.019 367.814 173.145V177.049Z" fill="#002E60"/>
<path d="M391.648 206.731H391.507C391.737 205.824 391.855 204.887 391.855 203.945C391.855 201.363 390.96 198.838 389.339 196.835C388.043 195.238 386.331 194.024 384.418 193.325V184.663C384.418 182.45 384.015 180.305 383.22 178.273C383.22 178.271 383.22 178.271 383.22 178.271C384.864 175.423 385.732 172.18 385.72 168.81L385.718 164.881V164.828L385.72 164.791V164.784L385.642 145.764C385.635 144.217 385.025 142.767 383.929 141.68C382.837 140.596 381.389 140 379.853 140H379.828C378.281 140.007 376.829 140.615 375.74 141.713L371.017 146.475C369.675 146.174 368.291 146.02 366.882 146.02H366.802C365.358 146.026 363.95 146.197 362.598 146.514L357.829 141.786C356.738 140.702 355.29 140.106 353.753 140.106H353.729C352.181 140.113 350.73 140.721 349.642 141.818C348.553 142.916 347.957 144.371 347.963 145.92L348.04 164.832V168.957C348.053 172.27 348.917 175.451 350.525 178.248C350.272 178.89 350.058 179.544 349.885 180.207C349.711 180.87 349.577 181.544 349.481 182.227L343.146 175.89C342.814 175.557 342.365 175.372 341.894 175.372C341.426 175.372 340.977 175.557 340.644 175.89C334.58 181.956 334.58 191.826 340.644 197.891L342.658 199.906C342.167 201.188 341.908 202.559 341.908 203.945C341.908 204.887 342.027 205.824 342.257 206.731H342.115C339.769 206.731 337.859 208.641 337.859 210.987V213.109C337.859 214.704 339.155 216 340.75 216H393.013C394.608 216 395.904 214.704 395.904 213.109V210.987C395.904 208.641 393.994 206.731 391.648 206.731ZM341.986 179.732L349.315 187.061V193.338C347.452 194.024 345.779 195.201 344.5 196.745L343.146 195.391C338.883 191.128 338.496 184.435 341.986 179.732ZM341.396 212.464V210.987C341.396 210.591 341.719 210.268 342.115 210.268H344.835C345.459 210.268 346.037 209.939 346.355 209.401C346.674 208.866 346.686 208.199 346.387 207.653C345.77 206.525 345.445 205.243 345.445 203.945C345.445 202.75 345.726 201.598 346.23 200.566C346.3 200.423 346.375 200.281 346.453 200.143V200.142C347.132 198.945 348.118 197.933 349.315 197.233C349.315 197.233 349.315 210.365 349.319 212.464H341.396V212.464ZM378.251 144.203C379.126 143.321 380.557 143.315 381.439 144.191C381.865 144.613 382.102 145.179 382.106 145.78L382.139 153.802C381.543 152.985 380.878 152.211 380.146 151.484C378.553 149.903 376.73 148.643 374.75 147.732L378.251 144.203ZM366.885 149.55H366.887C368.811 149.559 370.655 149.907 372.356 150.563C370.321 150.97 368.425 151.908 366.862 153.295C365.31 151.919 363.432 150.984 361.411 150.572C363.114 149.916 364.962 149.559 366.885 149.55ZM351.499 145.906C351.497 145.303 351.729 144.737 352.153 144.309C352.577 143.881 353.141 143.646 353.743 143.642H353.752C354.351 143.642 354.913 143.874 355.339 144.297L358.883 147.812C355.937 149.2 353.407 151.33 351.533 153.958L351.499 145.906ZM380.882 212.464H376.081V195.725C376.081 194.749 375.289 193.957 374.313 193.957C373.337 193.957 372.545 194.749 372.545 195.725V212.464H361.197V195.725C361.197 194.749 360.405 193.957 359.429 193.957C358.453 193.957 357.661 194.749 357.661 195.725V212.464H352.857C352.853 210.446 352.851 184.663 352.851 184.663C352.851 183.682 352.954 182.718 353.15 181.78C353.299 181.942 353.453 182.1 353.612 182.257C357.166 185.783 361.874 187.72 366.876 187.72H366.956C371.988 187.699 376.711 185.721 380.254 182.147C380.369 182.032 380.479 181.917 380.588 181.801C380.781 182.734 380.882 183.691 380.882 184.663V212.464H380.882ZM382.183 168.943H382.182C382.148 177.338 375.323 184.15 366.942 184.184H366.878C358.469 184.184 351.611 177.359 351.577 168.943V164.835C351.584 160.358 353.532 156.32 356.625 153.521L359.028 153.514H359.058C361.6 153.514 364.003 154.635 365.648 156.588C365.962 156.963 366.412 157.156 366.866 157.156C367.227 157.156 367.591 157.034 367.89 156.783C367.96 156.723 368.024 156.658 368.082 156.589C368.905 155.611 369.916 154.843 371.039 154.318C372.163 153.793 373.399 153.514 374.671 153.514L377.157 153.521C377.326 153.675 377.493 153.832 377.657 153.995C380.557 156.871 382.164 160.703 382.183 164.789V168.943V168.943ZM392.368 212.464H384.418V197.215C386.768 198.578 388.319 201.133 388.319 203.945C388.319 205.243 387.993 206.525 387.376 207.653C387.077 208.199 387.09 208.864 387.408 209.401C387.726 209.939 388.304 210.268 388.929 210.268H391.648C392.044 210.268 392.368 210.591 392.368 210.987V212.464H392.368Z" fill="#002E60"/>
<path d="M360.684 161.146C360.919 160.952 361.107 160.703 361.228 160.418C361.256 160.35 361.28 160.278 361.301 160.206C361.35 160.038 361.377 159.861 361.377 159.678C361.377 159.415 361.324 159.164 361.228 158.936C361.179 158.822 361.12 158.714 361.052 158.613C360.949 158.461 360.825 158.325 360.684 158.208C360.59 158.131 360.489 158.062 360.381 158.003C360.273 157.945 360.158 157.896 360.039 157.859C359.86 157.803 359.67 157.773 359.473 157.773C359.276 157.773 359.086 157.803 358.907 157.859C358.788 157.896 358.674 157.945 358.566 158.003C358.189 158.208 357.888 158.538 357.72 158.936C357.624 159.164 357.57 159.415 357.57 159.678C357.57 160.269 357.84 160.797 358.263 161.146C358.357 161.223 358.458 161.292 358.566 161.35C358.782 161.468 359.023 161.544 359.278 161.57C359.342 161.577 359.407 161.58 359.473 161.58C359.67 161.58 359.86 161.55 360.039 161.495C360.159 161.458 360.273 161.409 360.381 161.35C360.489 161.292 360.59 161.223 360.684 161.146Z" fill="#002E60"/>
<path d="M366.077 166.062H367.657C368.635 166.062 369.426 165.271 369.426 164.294C369.426 163.318 368.635 162.525 367.657 162.525H366.077C365.099 162.525 364.309 163.317 364.309 164.294C364.309 165.271 365.099 166.062 366.077 166.062Z" fill="#002E60"/>
<path d="M359.473 157.773C358.422 157.773 357.57 158.626 357.57 159.678C357.57 160.728 358.422 161.58 359.473 161.58C360.525 161.58 361.377 160.728 361.377 159.678C361.377 158.626 360.525 157.773 359.473 157.773Z" fill="#002E60"/>
<path d="M374.266 157.707C373.215 157.707 372.363 158.559 372.363 159.61C372.363 160.662 373.215 161.514 374.266 161.514C375.318 161.514 376.17 160.662 376.17 159.61C376.17 158.559 375.318 157.707 374.266 157.707Z" fill="#002E60"/>
<path d="M367.657 162.525H366.077C365.099 162.525 364.309 163.317 364.309 164.294C364.309 165.271 365.099 166.062 366.077 166.062H367.657C368.635 166.062 369.426 165.271 369.426 164.294C369.426 163.317 368.635 162.525 367.657 162.525Z" fill="#002E60"/>
<path d="M372.724 169.009C371.962 168.571 370.989 168.833 370.551 169.595C370.318 170 369.879 170.254 369.409 170.256C369.407 170.256 369.407 170.256 369.405 170.256H369.398C368.929 170.254 368.493 170 368.258 169.595C368.121 169.36 367.927 169.154 367.674 169.009C366.912 168.571 365.94 168.833 365.501 169.595C365.266 170.001 364.826 170.256 364.354 170.256C363.881 170.256 363.443 170.001 363.208 169.595C362.769 168.833 361.797 168.571 361.035 169.009C360.273 169.448 360.013 170.422 360.451 171.182C360.976 172.096 361.804 172.779 362.762 173.143V177.049C362.762 179.319 364.608 181.165 366.878 181.165C369.149 181.165 370.996 179.319 370.996 177.049V173.143C371.957 172.781 372.782 172.096 373.309 171.182C373.748 170.422 373.486 169.448 372.724 169.009ZM367.814 177.049C367.814 177.564 367.395 177.983 366.878 177.983C366.364 177.983 365.945 177.564 365.945 177.049V173.143C366.274 173.019 366.589 172.859 366.88 172.661C367.17 172.859 367.485 173.019 367.814 173.145V177.049Z" fill="#002E60"/>
<path d="M336.951 233.756V254H333.171V245.152H323.665V254H319.885V233.756H323.665V242.464H333.171V233.756H336.951ZM353.016 239.636V254H350.902C350.444 254 350.155 253.79 350.034 253.37L349.796 252.222C349.208 252.819 348.559 253.305 347.85 253.678C347.14 254.042 346.305 254.224 345.344 254.224C344.56 254.224 343.864 254.093 343.258 253.832C342.66 253.561 342.156 253.183 341.746 252.698C341.335 252.213 341.022 251.639 340.808 250.976C340.602 250.304 340.5 249.567 340.5 248.764V239.636H343.958V248.764C343.958 249.641 344.158 250.323 344.56 250.808C344.97 251.284 345.582 251.522 346.394 251.522C346.991 251.522 347.551 251.391 348.074 251.13C348.596 250.859 349.091 250.491 349.558 250.024V239.636H353.016ZM365.208 242.436C365.115 242.585 365.017 242.693 364.914 242.758C364.812 242.814 364.681 242.842 364.522 242.842C364.354 242.842 364.172 242.795 363.976 242.702C363.79 242.609 363.57 242.506 363.318 242.394C363.066 242.273 362.777 242.165 362.45 242.072C362.133 241.979 361.755 241.932 361.316 241.932C360.635 241.932 360.098 242.077 359.706 242.366C359.324 242.655 359.132 243.033 359.132 243.5C359.132 243.808 359.23 244.069 359.426 244.284C359.632 244.489 359.898 244.671 360.224 244.83C360.56 244.989 360.938 245.133 361.358 245.264C361.778 245.385 362.203 245.521 362.632 245.67C363.071 245.819 363.5 245.992 363.92 246.188C364.34 246.375 364.714 246.617 365.04 246.916C365.376 247.205 365.642 247.555 365.838 247.966C366.044 248.377 366.146 248.871 366.146 249.45C366.146 250.141 366.02 250.78 365.768 251.368C365.526 251.947 365.162 252.451 364.676 252.88C364.191 253.3 363.589 253.631 362.87 253.874C362.161 254.107 361.34 254.224 360.406 254.224C359.912 254.224 359.426 254.177 358.95 254.084C358.484 254 358.031 253.879 357.592 253.72C357.163 253.561 356.762 253.375 356.388 253.16C356.024 252.945 355.702 252.712 355.422 252.46L356.22 251.144C356.323 250.985 356.444 250.864 356.584 250.78C356.724 250.696 356.902 250.654 357.116 250.654C357.331 250.654 357.532 250.715 357.718 250.836C357.914 250.957 358.138 251.088 358.39 251.228C358.642 251.368 358.936 251.499 359.272 251.62C359.618 251.741 360.052 251.802 360.574 251.802C360.985 251.802 361.335 251.755 361.624 251.662C361.923 251.559 362.166 251.429 362.352 251.27C362.548 251.111 362.688 250.929 362.772 250.724C362.866 250.509 362.912 250.29 362.912 250.066C362.912 249.73 362.81 249.455 362.604 249.24C362.408 249.025 362.142 248.839 361.806 248.68C361.48 248.521 361.102 248.381 360.672 248.26C360.252 248.129 359.818 247.989 359.37 247.84C358.932 247.691 358.498 247.518 358.068 247.322C357.648 247.117 357.27 246.86 356.934 246.552C356.608 246.244 356.342 245.866 356.136 245.418C355.94 244.97 355.842 244.429 355.842 243.794C355.842 243.206 355.959 242.646 356.192 242.114C356.426 241.582 356.766 241.12 357.214 240.728C357.672 240.327 358.236 240.009 358.908 239.776C359.59 239.533 360.374 239.412 361.26 239.412C362.25 239.412 363.15 239.575 363.962 239.902C364.774 240.229 365.451 240.658 365.992 241.19L365.208 242.436ZM372.207 233.196V245.11H372.851C373.084 245.11 373.266 245.082 373.397 245.026C373.537 244.961 373.677 244.835 373.817 244.648L377.387 240.238C377.536 240.042 377.7 239.893 377.877 239.79C378.064 239.687 378.302 239.636 378.591 239.636H381.755L377.289 244.97C376.972 245.39 376.626 245.712 376.253 245.936C376.449 246.076 376.622 246.239 376.771 246.426C376.93 246.613 377.079 246.813 377.219 247.028L382.007 254H378.885C378.614 254 378.381 253.958 378.185 253.874C377.989 253.781 377.826 253.617 377.695 253.384L374.027 247.938C373.896 247.723 373.761 247.583 373.621 247.518C373.481 247.453 373.271 247.42 372.991 247.42H372.207V254H368.749V233.196H372.207ZM387.29 239.636V254H383.818V239.636H387.29ZM387.766 235.45C387.766 235.749 387.705 236.029 387.584 236.29C387.463 236.551 387.299 236.78 387.094 236.976C386.898 237.172 386.665 237.331 386.394 237.452C386.123 237.564 385.834 237.62 385.526 237.62C385.227 237.62 384.943 237.564 384.672 237.452C384.411 237.331 384.182 237.172 383.986 236.976C383.79 236.78 383.631 236.551 383.51 236.29C383.398 236.029 383.342 235.749 383.342 235.45C383.342 235.142 383.398 234.853 383.51 234.582C383.631 234.311 383.79 234.078 383.986 233.882C384.182 233.686 384.411 233.532 384.672 233.42C384.943 233.299 385.227 233.238 385.526 233.238C385.834 233.238 386.123 233.299 386.394 233.42C386.665 233.532 386.898 233.686 387.094 233.882C387.299 234.078 387.463 234.311 387.584 234.582C387.705 234.853 387.766 235.142 387.766 235.45ZM400.069 245.166C400.069 244.718 400.004 244.298 399.873 243.906C399.752 243.505 399.565 243.155 399.313 242.856C399.061 242.557 398.739 242.324 398.347 242.156C397.965 241.979 397.517 241.89 397.003 241.89C396.005 241.89 395.216 242.175 394.637 242.744C394.068 243.313 393.704 244.121 393.545 245.166H400.069ZM393.475 247.252C393.531 247.989 393.662 248.629 393.867 249.17C394.073 249.702 394.343 250.145 394.679 250.5C395.015 250.845 395.412 251.107 395.869 251.284C396.336 251.452 396.849 251.536 397.409 251.536C397.969 251.536 398.45 251.471 398.851 251.34C399.262 251.209 399.617 251.065 399.915 250.906C400.223 250.747 400.489 250.603 400.713 250.472C400.947 250.341 401.171 250.276 401.385 250.276C401.675 250.276 401.889 250.383 402.029 250.598L403.023 251.858C402.641 252.306 402.211 252.684 401.735 252.992C401.259 253.291 400.76 253.533 400.237 253.72C399.724 253.897 399.197 254.023 398.655 254.098C398.123 254.173 397.605 254.21 397.101 254.21C396.103 254.21 395.174 254.047 394.315 253.72C393.457 253.384 392.71 252.894 392.075 252.25C391.441 251.597 390.941 250.794 390.577 249.842C390.213 248.881 390.031 247.77 390.031 246.51C390.031 245.53 390.19 244.611 390.507 243.752C390.825 242.884 391.277 242.133 391.865 241.498C392.463 240.854 393.186 240.345 394.035 239.972C394.894 239.599 395.86 239.412 396.933 239.412C397.839 239.412 398.674 239.557 399.439 239.846C400.205 240.135 400.863 240.56 401.413 241.12C401.964 241.671 402.393 242.352 402.701 243.164C403.019 243.967 403.177 244.886 403.177 245.922C403.177 246.445 403.121 246.799 403.009 246.986C402.897 247.163 402.683 247.252 402.365 247.252H393.475ZM414.536 242.436C414.443 242.585 414.345 242.693 414.242 242.758C414.14 242.814 414.009 242.842 413.85 242.842C413.682 242.842 413.5 242.795 413.304 242.702C413.118 242.609 412.898 242.506 412.646 242.394C412.394 242.273 412.105 242.165 411.778 242.072C411.461 241.979 411.083 241.932 410.644 241.932C409.963 241.932 409.426 242.077 409.034 242.366C408.652 242.655 408.46 243.033 408.46 243.5C408.46 243.808 408.558 244.069 408.754 244.284C408.96 244.489 409.226 244.671 409.552 244.83C409.888 244.989 410.266 245.133 410.686 245.264C411.106 245.385 411.531 245.521 411.96 245.67C412.399 245.819 412.828 245.992 413.248 246.188C413.668 246.375 414.042 246.617 414.368 246.916C414.704 247.205 414.97 247.555 415.166 247.966C415.372 248.377 415.474 248.871 415.474 249.45C415.474 250.141 415.348 250.78 415.096 251.368C414.854 251.947 414.49 252.451 414.004 252.88C413.519 253.3 412.917 253.631 412.198 253.874C411.489 254.107 410.668 254.224 409.734 254.224C409.24 254.224 408.754 254.177 408.278 254.084C407.812 254 407.359 253.879 406.92 253.72C406.491 253.561 406.09 253.375 405.716 253.16C405.352 252.945 405.03 252.712 404.75 252.46L405.548 251.144C405.651 250.985 405.772 250.864 405.912 250.78C406.052 250.696 406.23 250.654 406.444 250.654C406.659 250.654 406.86 250.715 407.046 250.836C407.242 250.957 407.466 251.088 407.718 251.228C407.97 251.368 408.264 251.499 408.6 251.62C408.946 251.741 409.38 251.802 409.902 251.802C410.313 251.802 410.663 251.755 410.952 251.662C411.251 251.559 411.494 251.429 411.68 251.27C411.876 251.111 412.016 250.929 412.1 250.724C412.194 250.509 412.24 250.29 412.24 250.066C412.24 249.73 412.138 249.455 411.932 249.24C411.736 249.025 411.47 248.839 411.134 248.68C410.808 248.521 410.43 248.381 410 248.26C409.58 248.129 409.146 247.989 408.698 247.84C408.26 247.691 407.826 247.518 407.396 247.322C406.976 247.117 406.598 246.86 406.262 246.552C405.936 246.244 405.67 245.866 405.464 245.418C405.268 244.97 405.17 244.429 405.17 243.794C405.17 243.206 405.287 242.646 405.52 242.114C405.754 241.582 406.094 241.12 406.542 240.728C407 240.327 407.564 240.009 408.236 239.776C408.918 239.533 409.702 239.412 410.588 239.412C411.578 239.412 412.478 239.575 413.29 239.902C414.102 240.229 414.779 240.658 415.32 241.19L414.536 242.436Z" fill="#002E60"/>
<defs>
<filter id="filter0_d_2707_48267" x="251" y="97" width="240" height="218" filterUnits="userSpaceOnUse" color-interpolation-filters="sRGB">
<feFlood flood-opacity="0" result="BackgroundImageFix"/>
<feColorMatrix in="SourceAlpha" type="matrix" values="0 0 0 0 0 0 0 0 0 0 0 0 0 0 0 0 0 0 127 0" result="hardAlpha"/>
<feOffset dx="4" dy="4"/>
<feGaussianBlur stdDeviation="2"/>
<feComposite in2="hardAlpha" operator="out"/>
<feColorMatrix type="matrix" values="0 0 0 0 0 0 0 0 0 0 0 0 0 0 0 0 0 0 0.05 0"/>
<feBlend mode="normal" in2="BackgroundImageFix" result="effect1_dropShadow_2707_48267"/>
<feBlend mode="normal" in="SourceGraphic" in2="effect1_dropShadow_2707_48267" result="shape"/>
</filter>
<filter id="filter1_d_2707_48267" x="0" y="97" width="240" height="218" filterUnits="userSpaceOnUse" color-interpolation-filters="sRGB">
<feFlood flood-opacity="0" result="BackgroundImageFix"/>
<feColorMatrix in="SourceAlpha" type="matrix" values="0 0 0 0 0 0 0 0 0 0 0 0 0 0 0 0 0 0 127 0" result="hardAlpha"/>
<feOffset dx="4" dy="4"/>
<feGaussianBlur stdDeviation="2"/>
<feComposite in2="hardAlpha" operator="out"/>
<feColorMatrix type="matrix" values="0 0 0 0 0 0 0 0 0 0 0 0 0 0 0 0 0 0 0.05 0"/>
<feBlend mode="normal" in2="BackgroundImageFix" result="effect1_dropShadow_2707_48267"/>
<feBlend mode="normal" in="SourceGraphic" in2="effect1_dropShadow_2707_48267" result="shape"/>
</filter>
<clipPath id="clip0_2707_48267">
<rect width="76" height="76" fill="white" transform="translate(82 147)"/>
</clipPath>
</defs>
</svg>
